<svg width="172" height="40" viewBox="0 0 172 40" fill="none" xmlns="http://www.w3.org/2000/svg">
<path d="M0.539062 31V1.89844H11.9844C14.1979 1.89844 16.0794 2.32161 17.6289 3.16797C19.1914 4.01432 20.3828 5.17969 21.2031 6.66406C22.0234 8.14844 22.4336 9.85417 22.4336 11.7812C22.4336 13.7083 22.0169 15.4076 21.1836 16.8789C20.3503 18.3503 19.1458 19.5026 17.5703 20.3359C15.9948 21.1562 14.0872 21.5664 11.8477 21.5664H6.67188V31H0.539062ZM6.67188 16.6445H10.832C12.6159 16.6445 13.9375 16.1953 14.7969 15.2969C15.6693 14.3854 16.1055 13.2135 16.1055 11.7812C16.1055 10.3229 15.6693 9.15104 14.7969 8.26562C13.9245 7.38021 12.5964 6.9375 10.8125 6.9375H6.67188V16.6445ZM26.3203 31V9.16406H32.1797V12.9922H32.4141C32.8047 11.638 33.4688 10.6159 34.4062 9.92578C35.3438 9.22266 36.4245 8.87109 37.6484 8.87109C37.9479 8.87109 38.2734 8.89062 38.625 8.92969C38.9766 8.96875 39.2826 9.02083 39.543 9.08594V14.4375C39.2565 14.3464 38.8594 14.2747 38.3516 14.2227C37.8568 14.1576 37.401 14.125 36.9844 14.125C35.6562 14.125 34.556 14.5482 33.6836 15.3945C32.8112 16.2279 32.375 17.3151 32.375 18.6562V31H26.3203ZM52.5312 31.4297C50.3307 31.4297 48.4232 30.9609 46.8086 30.0234C45.207 29.0729 43.9701 27.7578 43.0977 26.0781C42.2383 24.3854 41.8086 22.4193 41.8086 20.1797C41.8086 17.9271 42.2383 15.9544 43.0977 14.2617C43.9701 12.569 45.207 11.2539 46.8086 10.3164C48.4232 9.36589 50.3307 8.89062 52.5312 8.89062C54.7448 8.89062 56.6523 9.36589 58.2539 10.3164C59.8685 11.2539 61.1055 12.569 61.9648 14.2617C62.8372 15.9544 63.2734 17.9271 63.2734 20.1797C63.2734 22.4193 62.8372 24.3854 61.9648 26.0781C61.1055 27.7578 59.8685 29.0729 58.2539 30.0234C56.6523 30.9609 54.7448 31.4297 52.5312 31.4297ZM47.9609 20.1406C47.9609 22.0417 48.3451 23.6107 49.1133 24.8477C49.8815 26.0846 51.0273 26.7031 52.5508 26.7031C54.0612 26.7031 55.2005 26.0846 55.9688 24.8477C56.737 23.6107 57.1211 22.0417 57.1211 20.1406C57.1211 18.2396 56.737 16.6771 55.9688 15.4531C55.2005 14.2292 54.0612 13.6172 52.5508 13.6172C51.0273 13.6172 49.8815 14.2292 49.1133 15.4531C48.3451 16.6771 47.9609 18.2396 47.9609 20.1406ZM67.2578 9.16406H73.3125V32.0938C73.3125 34.6068 72.5703 36.4102 71.0859 37.5039C69.6146 38.6107 67.5964 39.1641 65.0312 39.1641H63.8203V34.4375H64.6016C65.5781 34.4375 66.2617 34.2292 66.6523 33.8125C67.056 33.4089 67.2578 32.8034 67.2578 31.9961V9.16406ZM70.2656 6.37109C69.3672 6.37109 68.5924 6.07161 67.9414 5.47266C67.3034 4.8737 66.9844 4.15104 66.9844 3.30469C66.9844 2.45833 67.3034 1.74219 67.9414 1.15625C68.5924 0.557292 69.3672 0.257812 70.2656 0.257812C71.1641 0.257812 71.9323 0.557292 72.5703 1.15625C73.2214 1.74219 73.5469 2.45833 73.5469 3.30469C73.5469 4.15104 73.2214 4.8737 72.5703 5.47266C71.9323 6.07161 71.1641 6.37109 70.2656 6.37109ZM88.0977 31.4297C85.8581 31.4297 83.931 30.974 82.3164 30.0625C80.7018 29.151 79.4583 27.8555 78.5859 26.1758C77.7135 24.4831 77.2773 22.4844 77.2773 20.1797C77.2773 17.9401 77.707 15.974 78.5664 14.2812C79.4388 12.5885 80.6628 11.2669 82.2383 10.3164C83.8138 9.36589 85.6693 8.89062 87.8047 8.89062C89.7318 8.89062 91.4701 9.30078 93.0195 10.1211C94.582 10.9414 95.819 12.1719 96.7305 13.8125C97.6549 15.4531 98.1172 17.5104 98.1172 19.9844V21.625H83.2344C83.2995 23.2786 83.7812 24.5742 84.6797 25.5117C85.5781 26.4492 86.75 26.918 88.1953 26.918C89.1979 26.918 90.0573 26.7031 90.7734 26.2734C91.5026 25.8438 92.0234 25.2188 92.3359 24.3984L97.9219 24.7695C97.4922 26.7747 96.418 28.3893 94.6992 29.6133C92.9935 30.8242 90.793 31.4297 88.0977 31.4297ZM83.2734 17.8945H92.3164C92.1732 16.5143 91.7305 15.4206 90.9883 14.6133C90.2461 13.806 89.2044 13.4023 87.8633 13.4023C86.5091 13.4023 85.4349 13.8255 84.6406 14.6719C83.8594 15.5052 83.4036 16.5794 83.2734 17.8945ZM111.945 31.4297C109.706 31.4297 107.785 30.9544 106.184 30.0039C104.582 29.0534 103.352 27.7318 102.492 26.0391C101.646 24.3464 101.223 22.3932 101.223 20.1797C101.223 17.9401 101.652 15.974 102.512 14.2812C103.384 12.5885 104.621 11.2669 106.223 10.3164C107.824 9.36589 109.725 8.89062 111.926 8.89062C113.827 8.89062 115.493 9.23568 116.926 9.92578C118.358 10.6159 119.491 11.5859 120.324 12.8359C121.158 14.0859 121.613 15.5573 121.691 17.25H115.988C115.819 16.1693 115.396 15.2969 114.719 14.6328C114.042 13.9557 113.143 13.6172 112.023 13.6172C110.617 13.6172 109.491 14.1836 108.645 15.3164C107.798 16.4362 107.375 18.0312 107.375 20.1016C107.375 22.1849 107.792 23.806 108.625 24.9648C109.471 26.1237 110.604 26.7031 112.023 26.7031C113.065 26.7031 113.944 26.3776 114.66 25.7266C115.376 25.0755 115.819 24.1641 115.988 22.9922H121.691C121.6 24.6589 121.151 26.1302 120.344 27.4062C119.536 28.6693 118.417 29.6589 116.984 30.375C115.565 31.0781 113.885 31.4297 111.945 31.4297ZM137.219 9.16406V13.7344H133.078V24.2812C133.078 25.7005 133.768 26.4102 135.148 26.4102C135.383 26.4102 135.637 26.3906 135.91 26.3516C136.197 26.3125 136.444 26.2669 136.652 26.2148L137.609 30.7461C136.32 31.1237 135.07 31.3125 133.859 31.3125C131.698 31.3125 130.018 30.7656 128.82 29.6719C127.635 28.5781 127.043 27.0482 127.043 25.082V13.7344H124.074V9.16406H127.043V3.96875H133.078V9.16406H137.219ZM159.289 15.3945L153.781 15.7266C153.625 15.0365 153.234 14.444 152.609 13.9492C151.997 13.4414 151.164 13.1875 150.109 13.1875C149.172 13.1875 148.384 13.3828 147.746 13.7734C147.108 14.1641 146.789 14.6849 146.789 15.3359C146.789 15.8568 146.997 16.2995 147.414 16.6641C147.831 17.0286 148.54 17.3216 149.543 17.543L153.508 18.3242C157.701 19.1576 159.797 21.1237 159.797 24.2227C159.797 25.668 159.38 26.931 158.547 28.0117C157.714 29.0924 156.568 29.9323 155.109 30.5312C153.651 31.1302 151.978 31.4297 150.09 31.4297C147.199 31.4297 144.901 30.8307 143.195 29.6328C141.49 28.4219 140.487 26.7747 140.188 24.6914L146.125 24.3789C146.529 26.1758 147.857 27.0742 150.109 27.0742C151.164 27.0742 152.017 26.8659 152.668 26.4492C153.319 26.0326 153.645 25.5052 153.645 24.8672C153.645 23.7865 152.714 23.0573 150.852 22.6797L147.082 21.8984C142.876 21.0521 140.773 18.9818 140.773 15.6875C140.773 13.5781 141.613 11.918 143.293 10.707C144.986 9.49609 147.225 8.89062 150.012 8.89062C152.772 8.89062 154.947 9.47656 156.535 10.6484C158.124 11.8073 159.042 13.3893 159.289 15.3945ZM167.961 31.3711C166.997 31.3711 166.184 31.0456 165.52 30.3945C164.855 29.7305 164.523 28.9232 164.523 27.9727C164.523 27.0091 164.855 26.2018 165.52 25.5508C166.184 24.8997 166.997 24.5742 167.961 24.5742C168.924 24.5742 169.738 24.8997 170.402 25.5508C171.066 26.2018 171.398 27.0091 171.398 27.9727C171.398 28.9232 171.066 29.7305 170.402 30.3945C169.738 31.0456 168.924 31.3711 167.961 31.3711Z" fill="white"/>
</svg>
